<svg xmlns='http://www.w3.org/2000/svg' width='400' height='400'>
      <defs><style>.cls-multipy{mix-blend-mode: multiply;}.cls-softlight{mix-blend-mode: soft-light;}.cls-overlay{mix-blend-mode: overlay;}.cls-colorburn{mix-blend-mode: color-burn;}.cls-screen{mix-blend-mode: screen;}.cls-lighten{ mix-blend-mode: darken;}</style>
      </defs><path fill="#ffdbc7" stroke="#000" stroke-miterlimit="10" stroke-width="5" d="M303.13,380v19.39H96.87V380c0-38.61,19.76-71.1,45.91-78.94a42.23,42.23,0,0,1,8.94-1.67h0c1.08-.09,2.16-.14,3.26-.14h90c1.1,0,2.18,0,3.26.14h0a42.32,42.32,0,0,1,12.16,2.78C285,311.65,303.13,343,303.13,380Z" class="canChange"></path><path fill="#ffdbc7" stroke="#000" stroke-miterlimit="10" stroke-width="5" d="M311.59,187.33s53.56-48.67,44.87,6.95S312.69,238,312.69,238" class="canChange"></path><path fill="none" stroke="#000" stroke-miterlimit="10" stroke-width="2" d="M345.49,178.08c-7.33,1.35-19.24,13.09-21.6,22a7.31,7.31,0,0,1,10.47-.63c3.17,2.78,4.94,8.41,4.24,13.5s-3.83,9.3-7.49,10.1"></path><path fill="#fff" d="M315.07,196.36c5.16-10.16,12.78-17.79,21.34-21.37,3-1.27,6.42-2,9.34-.19,4.05,2.51,6,9.35,5.7,15.49s-2.37,11.76-4.4,17.19c4.25-5.19,7.1-12.56,7.89-20.42.4-3.93.23-8.26-1.49-11.48A9.14,9.14,0,0,0,348,171a12.92,12.92,0,0,0-6.39,0c-10.12,2.14-19.41,10.61-24.85,22.65" class="cls-overlay"></path><path fill="#ffdbc7" stroke="#000" stroke-miterlimit="10" stroke-width="5" d="M88.41,187.33s-53.56-48.67-44.87,6.95S87.31,238,87.31,238" class="canChange"></path><path fill="none" stroke="#000" stroke-miterlimit="10" stroke-width="2" d="M54.51,178.08c7.33,1.35,19.24,13.09,21.6,22a7.31,7.31,0,0,0-10.47-.63c-3.17,2.78-4.94,8.41-4.24,13.5s3.83,9.3,7.49,10.1"></path><path fill="#fff" d="M84.93,196.36C79.77,186.2,72.15,178.57,63.59,175c-3-1.27-6.42-2-9.34-.19-4,2.51-6,9.35-5.7,15.49s2.37,11.76,4.4,17.19c-4.25-5.19-7.1-12.56-7.89-20.42-.4-3.93-.23-8.26,1.49-11.48A9.14,9.14,0,0,1,52,171a12.92,12.92,0,0,1,6.39,0c10.12,2.14,19.41,10.61,24.85,22.65" class="cls-overlay"></path><circle fill="#ffdbc7" stroke="#000" stroke-miterlimit="10" stroke-width="5" cx="199.03" cy="179.39" r="129.04" class="canChange"></circle><path fill="#fff" d="M79.76,187a128.71,128.71,0,0,0,45.12,98A129,129,0,1,1,283,81.38,129.06,129.06,0,0,0,79.76,187Z" class="cls-overlay"></path><path opacity="0.29" d="M328.31,179.39a129.06,129.06,0,0,1-252,39.18A129.08,129.08,0,0,0,312.47,117.39,128.45,128.45,0,0,1,328.31,179.39Z"></path><path opacity="0.29" d="M329.93,148.65,327,177.08,291.73,92.14s-3.76,13.09-10.55,15.35l-6.79-22.63s-1.13,15.84-9.05,20.37c0,0-6.79-11.32-22.63-17,0,0-10.18,18.11-22.63,18.11,0,0-6.79-14.71-20.37-19.24,0,0,4.53,12.45-19.24,26,0,0-44.38-21.66-76.5-21l-10.2,14.49L70,167.68l-3.11-25.35L96.74,90.52c30.55-14.71,87.13,10.18,87.13,10.18L163.5,78.07l24.9,9.05s-3.4-12.44-4.53-19.23,40.74,22.63,40.74,22.63l11.31-19.24,29.42,19.24L269.87,60l11.31,30.55,12.45-18.11Z"></path><path fill="#963030" stroke="#000" stroke-miterlimit="10" stroke-width="5" d="M338.89,87.12l-9,61.53-2.35,31.26L291.73,92.14s-3.76,13.09-10.55,15.35l-6.79-22.63s-1.13,15.84-9.05,20.37c0,0-6.79-11.32-22.63-17,0,0-10.18,18.11-22.63,18.11,0,0-6.79-14.71-20.37-19.24,0,0,4.53,12.45-19.24,26,0,0-44.38-21.66-76.5-21l-10.2,14.49-23.38,60-.4,1-3.11-25.35L61.17,95.79a9.2,9.2,0,0,1,3.61-8.46L92.21,66.76,128.52,19a12,12,0,0,1,8.84-4.71c26.16-1.59,132.73-8.48,180.49,36.75A72.1,72.1,0,0,1,338.89,87.12Z" class="canChange"></path><path fill="#fff" d="M226.87,31.68H254C197.24,8.3,139.35,20,137.52,20.35c38.44-5.64,46.35,6.8,46.35,6.8-49.79-9-61.11,12.45-61.11,12.45C162.37,31.68,176,47.52,176,47.52c-32.82-10.19-61.11,3.39-61.11,3.39L99,69,73,92.78l-2.59,73.87-.4,1-3.11-25.35L61.17,95.79a9.2,9.2,0,0,1,3.61-8.46L92.21,66.76,128.52,19a12,12,0,0,1,8.84-4.71c26.16-1.59,132.73-8.48,180.49,36.75C284.67,37.92,226.87,31.68,226.87,31.68Z" class="cls-overlay"></path><path d="M158.45,133c-6.12-7.11-14.7-12.65-23.32-16.15-18.46-7.5-37.8-2.94-53.35,8.85-5.06,3.84-.08,12.53,5,8.64,13.73-10.42,30.1-14.82,46.32-7.53a52.94,52.94,0,0,1,18.23,13.26c4.21,4.89,11.25-2.21,7.07-7.07Z" class="canChange"></path><path d="M241.55,143.34c6.47,6.16,15,10.65,23.36,13.49,18.18,6.15,37.21,2.63,53.31-7.36,5.45-3.39.44-12-5.05-8.64-14.35,8.91-30.56,11.76-46.63,6-6.53-2.34-13.38-6.24-17.92-10.56s-11.75,2.62-7.07,7.07Z" class="canChange"></path><ellipse opacity="0.29" cx="277.91" cy="193.44" rx="42.09" ry="43.67"></ellipse><ellipse fill="#fff" cx="277.11" cy="191.24" rx="40.59" ry="42.17"></ellipse><path d="M277.11,150.57c21.55,0,39.09,18.25,39.09,40.67s-17.54,40.67-39.09,40.67S238,213.66,238,191.24s17.53-40.67,39.09-40.67m0-3c-23.25,0-42.09,19.55-42.09,43.67s18.84,43.67,42.09,43.67,42.09-19.55,42.09-43.67-18.85-43.67-42.09-43.67Z"></path><path opacity="0.29" d="M319.19,191.24c0,24.12-18.84,43.66-42.09,43.66A41.47,41.47,0,0,1,243.82,218a52.93,52.93,0,0,0,16.33,2.57c26.18,0,47.4-18.92,47.4-42.25a39,39,0,0,0-8.75-24.47A44,44,0,0,1,319.19,191.24Z"></path><ellipse cx="277.7" cy="195.1" rx="13.98" ry="13.42" transform="translate(-5.32 7.8) rotate(-1.59)" class="canChange"></ellipse><ellipse opacity="0.29" cx="122.09" cy="195.44" rx="42.09" ry="43.67"></ellipse><ellipse fill="#fff" cx="122.89" cy="193.24" rx="40.59" ry="42.17"></ellipse><path d="M122.89,152.57c21.56,0,39.09,18.25,39.09,40.67s-17.53,40.67-39.09,40.67S83.8,215.66,83.8,193.24s17.54-40.67,39.09-40.67m0-3c-23.24,0-42.09,19.55-42.09,43.67s18.85,43.67,42.09,43.67S165,217.36,165,193.24s-18.84-43.67-42.09-43.67Z"></path><path opacity="0.29" d="M80.81,193.24c0,24.12,18.84,43.66,42.09,43.66A41.47,41.47,0,0,0,156.18,220a52.93,52.93,0,0,1-16.33,2.57c-26.18,0-47.4-18.92-47.4-42.25a39,39,0,0,1,8.75-24.47A44,44,0,0,0,80.81,193.24Z"></path><ellipse cx="120.7" cy="193.1" rx="13.98" ry="13.42" transform="translate(-5.33 3.43) rotate(-1.59)" class="canChange"></ellipse><path fill="none" stroke="#000" stroke-miterlimit="10" stroke-width="5" d="M221.89,263.15s.11,8.59-2.89,10.17-34,0-38-.79-4.79-8.94-4.79-8.94,11.4-7.87,21.35-6S221.89,263.15,221.89,263.15Z"></path><path d="M166.81,268.25q1.83-1.28,3.7-2.49l1.89-1.22c.65-.37,1.31-.7,2-1.06,1.33-.68,2.65-1.39,4-2s2.79-1.12,4.19-1.68l1.05-.42,1.09-.32,2.18-.62c.73-.2,1.45-.43,2.19-.6l2.23-.42,2.25-.4c.75-.13,1.51-.14,2.27-.21a43.44,43.44,0,0,1,9.12.06,36,36,0,0,1,4.52.71l2.23.51c.73.18,1.45.44,2.18.66s1.45.43,2.16.7l2.1.88A54.33,54.33,0,0,1,233.19,270a91,91,0,0,0-15.89-7.53,53,53,0,0,0-16.93-2.91A62.22,62.22,0,0,0,183.28,262c-1.39.42-2.78.87-4.18,1.28s-2.74,1-4.11,1.55c-.69.26-1.39.5-2.08.77l-2,.91C169.55,267.09,168.19,267.68,166.81,268.25Z"></path><path fill="none" stroke="#000" stroke-miterlimit="10" stroke-width="5" d="M176.76,263.15s-4.26-14.65,1.74-15.65S220,243,222,250a19.72,19.72,0,0,1-.78,12.83S193,250.8,176.76,263.15Z"></path><path opacity="0.18" d="M199.41,245.71s9.64,6.53-6.46,11.7c0,0,31,9.22,29.39,1.49s-.38-8.71-.38-8.71A34.22,34.22,0,0,0,199.41,245.71Z"></path><path opacity="0.18" d="M195.31,257.59S213,263,206,269s-10.69,4.61-10.69,4.61S215,276,219,273s3.66-10.23-1.17-11.61S195.31,257.59,195.31,257.59Z"></path><path fill="#fff" d="M178.47,254.83a1.78,1.78,0,0,0,1,1.89,9.09,9.09,0,0,0,4.85.78,3.73,3.73,0,0,0,2.76-1.17c.28-.51,0-1-.35-1.55-.85-1.25-2-2.5-1.23-3.79.38-.66,2.83-2-.79-2C179.75,248.93,178.58,253.69,178.47,254.83Z" class="cls-overlay"></path><path fill="#fff" d="M184,268.66a3.63,3.63,0,0,0,1.39.09,1.51,1.51,0,0,0,1.1-.67,1.32,1.32,0,0,0-.6-1.66,5.68,5.68,0,0,0-2-.7c-1.37-.3-3.17-1.13-4.52-1.09C179.66,266.53,182,268.18,184,268.66Z" class="cls-overlay"></path><path fill="#c73a77" stroke="#000" stroke-miterlimit="10" stroke-width="5" d="M248.37,300.56h0c-1.08-.09-2.16-.14-3.26-.14h-6.7a21.59,21.59,0,0,1,4.36,12.76c0,.22,0,.44,0,.66-.52,15.62-19.24,28.17-42.28,28.17-23.35,0-42.28-12.91-42.28-28.83a21.59,21.59,0,0,1,4.36-12.76h-7.47c-1.1,0-2.18.05-3.26.14h0c-26.08,2-47.72,27.68-53.4,61.41h30.4l0,15.7v.73l.05,20.17H272V362h29.79C296.09,328.24,274.45,302.54,248.37,300.56Z" class="canChange"></path><polygon fill="#fff" points="134.09 349.65 134.09 399.43 128.19 398.65 128.38 349.65 134.09 349.65" class="cls-overlay"></polygon><line fill="none" stroke="#000" stroke-miterlimit="10" stroke-width="5" x1="271.84" y1="348.43" x2="271.75" y2="400"></line><path opacity="0.29" d="M260.53,302.78c-12.93,8.17-34.09,13.48-58,13.48-24.95,0-46.92-5.8-59.66-14.59a42.88,42.88,0,0,1,8.94-1.68h0c1.08-.09,2.16-.13,3.26-.13h90c1.1,0,2.18,0,3.26.13h0A42.67,42.67,0,0,1,260.53,302.78Z"></path><line fill="none" stroke="#000" stroke-miterlimit="10" stroke-width="5" x1="129.25" y1="349.01" x2="129.15" y2="400"></line><path opacity="0.29" d="M301.76,363.22H284.69c-3.38-46.05-31.07-49.55-41.94-49.11,0-.22,0-.45,0-.67a22.31,22.31,0,0,0-4.36-13h6.7c1.1,0,2.18.05,3.26.14h0C274.45,302.58,296.09,328.8,301.76,363.22Z"></path><path opacity="0.29" d="M99.88,362.09H117c3.38-46,31.08-49.55,42-49.11,0-.22,0-.45,0-.68a22.37,22.37,0,0,1,4.36-13h-6.69c-1.11,0-2.18,0-3.26.14h0C127.19,301.45,105.55,327.67,99.88,362.09Z"></path><path fill="#fff" d="M159.35,301v4.52s-23.63,0-36.67,18.11-17.93,39.6-17.93,39.6H98.24s8.14-36.21,20.37-46.39S152.83,297.59,159.35,301Z" class="cls-overlay"></path></svg>